<svg width="43" height="38" viewBox="0 0 43 38" fill="none" xmlns="http://www.w3.org/2000/svg">
<path d="M19.0217 5.16224C20.2229 8.80146 18.9965 12.4746 16.2832 13.3738C13.5699 14.273 10.3946 12.0505 9.19336 8.41124C7.99212 4.77202 9.21856 1.09888 11.9319 0.199677C14.6451 -0.699523 17.8205 1.52303 19.0217 5.16224ZM8.42893 14.1288C10.0166 16.8773 9.63017 20.0754 7.5721 21.263C5.51403 22.4506 2.55713 21.1867 0.977871 18.4382C-0.601384 15.6897 -0.231771 12.4916 1.8263 11.3039C3.88437 10.1163 6.84128 11.3803 8.42053 14.1288H8.42893ZM5.80804 31.3154C10.2098 19.3289 18.0305 16.2835 21.4998 16.2835C24.9691 16.2835 32.7898 19.3289 37.1915 31.3154C37.4939 32.1382 37.6284 33.0205 37.6284 33.9027V34.0384C37.6284 36.227 35.8727 38 33.7054 38C32.7394 38 31.7817 37.8812 30.8493 37.6437L23.4571 35.7775C22.1718 35.4551 20.8278 35.4551 19.5425 35.7775L12.1503 37.6437C11.2178 37.8812 10.2602 38 9.29416 38C7.12689 38 5.37122 36.227 5.37122 34.0384V33.9027C5.37122 33.0205 5.50563 32.1382 5.80804 31.3154ZM35.4275 21.263C33.3694 20.0754 32.983 16.8773 34.5706 14.1288C36.1583 11.3803 39.1068 10.1163 41.1649 11.3039C43.2229 12.4916 43.6094 15.6897 42.0217 18.4382C40.434 21.1867 37.4855 22.4506 35.4275 21.263ZM26.0443 13.3738C23.3311 12.4746 22.1046 8.80146 23.3059 5.16224C24.5071 1.52303 27.6824 -0.699523 30.3957 0.199677C33.109 1.09888 34.3354 4.77202 33.1342 8.41124C31.933 12.0505 28.7576 14.273 26.0443 13.3738Z" fill="#F28705"/>
</svg>
