<svg width="277" height="49" viewBox="0 0 277 49" fill="none" xmlns="http://www.w3.org/2000/svg">
<mask id="mask0_501_5308" style="mask-type:alpha" maskUnits="userSpaceOnUse" x="0" y="0" width="277" height="49">
<rect width="277" height="49" rx="12" fill="#780500"/>
</mask>
<g mask="url(#mask0_501_5308)">
<g filter="url(#filter0_d_501_5308)">
<path fill-rule="evenodd" clip-rule="evenodd" d="M-4.05292 38.9712C-2.85275 37.9398 -1.13543 38.6416 -0.110561 39.8341C0.682244 40.7566 0.261248 42.113 -0.667169 42.9108C-1.62801 43.7366 -3.07818 44.0443 -3.89868 43.0896C-4.94511 41.872 -5.27835 40.0243 -4.05292 38.9712Z" fill="#8A441E"/>
<path fill-rule="evenodd" clip-rule="evenodd" d="M-4.05292 38.9712C-2.85275 37.9398 -1.13543 38.6416 -0.110561 39.8341C0.682244 40.7566 0.261248 42.113 -0.667169 42.9108C-1.62801 43.7366 -3.07818 44.0443 -3.89868 43.0896C-4.94511 41.872 -5.27835 40.0243 -4.05292 38.9712Z" stroke="black" stroke-width="0.5"/>
</g>
<g filter="url(#filter1_d_501_5308)">
<path fill-rule="evenodd" clip-rule="evenodd" d="M28.9471 6.9712C30.1473 5.93976 31.8646 6.64156 32.8894 7.83408C33.6822 8.75659 33.2612 10.113 32.3328 10.9108C31.372 11.7366 29.9218 12.0443 29.1013 11.0896C28.0549 9.872 27.7216 8.02434 28.9471 6.9712Z" fill="#0E2C2E" fill-opacity="0.9" shape-rendering="crispEdges"/>
</g>
<g filter="url(#filter2_d_501_5308)">
<path fill-rule="evenodd" clip-rule="evenodd" d="M76.9471 40.9712C78.1473 39.9398 79.8646 40.6416 80.8894 41.8341C81.6822 42.7566 81.2612 44.113 80.3328 44.9108C79.372 45.7366 77.9218 46.0443 77.1013 45.0896C76.0549 43.872 75.7216 42.0243 76.9471 40.9712Z" fill="#0E2C2E" fill-opacity="0.8" shape-rendering="crispEdges"/>
</g>
<g filter="url(#filter3_d_501_5308)">
<path fill-rule="evenodd" clip-rule="evenodd" d="M114.947 9.9712C116.147 8.93976 117.865 9.64156 118.889 10.8341C119.682 11.7566 119.261 13.113 118.333 13.9108C117.372 14.7366 115.922 15.0443 115.101 14.0896C114.055 12.872 113.722 11.0243 114.947 9.9712Z" fill="#0E2C2E" fill-opacity="0.7" shape-rendering="crispEdges"/>
</g>
<g filter="url(#filter4_d_501_5308)">
<path fill-rule="evenodd" clip-rule="evenodd" d="M154.947 41.9712C156.147 40.9398 157.865 41.6416 158.889 42.8341C159.682 43.7566 159.261 45.113 158.333 45.9108C157.372 46.7366 155.922 47.0443 155.101 46.0896C154.055 44.872 153.722 43.0243 154.947 41.9712Z" fill="#0E2C2E" fill-opacity="0.8" shape-rendering="crispEdges"/>
</g>
<g filter="url(#filter5_d_501_5308)">
<path fill-rule="evenodd" clip-rule="evenodd" d="M194.947 9.9712C196.147 8.93976 197.865 9.64156 198.889 10.8341C199.682 11.7566 199.261 13.113 198.333 13.9108C197.372 14.7366 195.922 15.0443 195.101 14.0896C194.055 12.872 193.722 11.0243 194.947 9.9712Z" fill="#0E2C2E" fill-opacity="0.9" shape-rendering="crispEdges"/>
</g>
<g filter="url(#filter6_d_501_5308)">
<path fill-rule="evenodd" clip-rule="evenodd" d="M240.947 40.9712C242.147 39.9398 243.865 40.6416 244.889 41.8341C245.682 42.7566 245.261 44.113 244.333 44.9108C243.372 45.7366 241.922 46.0443 241.101 45.0896C240.055 43.872 239.722 42.0243 240.947 40.9712Z" fill="#0E2C2E"/>
</g>
<g filter="url(#filter7_d_501_5308)">
<path fill-rule="evenodd" clip-rule="evenodd" d="M-3.48548 29.3366C-1.93553 28.0045 0.282277 28.9108 1.60582 30.4509C2.62968 31.6423 2.08599 33.3939 0.887001 34.4243C-0.353865 35.4908 -2.22666 35.8882 -3.28628 34.6552C-4.63768 33.0827 -5.06804 30.6966 -3.48548 29.3366Z" fill="#0E2C2E"/>
</g>
<g filter="url(#filter8_d_501_5308)">
<path fill-rule="evenodd" clip-rule="evenodd" d="M29.5145 -2.66344C31.0645 -3.99547 33.2823 -3.08915 34.6058 -1.54908C35.6297 -0.357729 35.086 1.39393 33.887 2.42435C32.6461 3.49076 30.7733 3.88819 29.7137 2.65523C28.3623 1.08275 27.932 -1.30337 29.5145 -2.66344Z" fill="#0E2C2E" fill-opacity="0.9" shape-rendering="crispEdges"/>
</g>
<g filter="url(#filter9_d_501_5308)">
<path fill-rule="evenodd" clip-rule="evenodd" d="M77.5145 31.3366C79.0645 30.0045 81.2823 30.9108 82.6058 32.4509C83.6297 33.6423 83.086 35.3939 81.887 36.4243C80.6461 37.4908 78.7733 37.8882 77.7137 36.6552C76.3623 35.0827 75.932 32.6966 77.5145 31.3366Z" fill="#0E2C2E" fill-opacity="0.8" shape-rendering="crispEdges"/>
</g>
<g filter="url(#filter10_d_501_5308)">
<path fill-rule="evenodd" clip-rule="evenodd" d="M115.515 0.336561C117.064 -0.995473 119.282 -0.0891507 120.606 1.45092C121.63 2.64227 121.086 4.39393 119.887 5.42435C118.646 6.49076 116.773 6.88819 115.714 5.65523C114.362 4.08275 113.932 1.69663 115.515 0.336561Z" fill="#0E2C2E" fill-opacity="0.7" shape-rendering="crispEdges"/>
</g>
<g filter="url(#filter11_d_501_5308)">
<path fill-rule="evenodd" clip-rule="evenodd" d="M155.515 32.3366C157.064 31.0045 159.282 31.9108 160.606 33.4509C161.63 34.6423 161.086 36.3939 159.887 37.4243C158.646 38.4908 156.773 38.8882 155.714 37.6552C154.362 36.0827 153.932 33.6966 155.515 32.3366Z" fill="#0E2C2E" fill-opacity="0.8" shape-rendering="crispEdges"/>
</g>
<g filter="url(#filter12_d_501_5308)">
<path fill-rule="evenodd" clip-rule="evenodd" d="M195.515 0.336561C197.064 -0.995473 199.282 -0.0891507 200.606 1.45092C201.63 2.64227 201.086 4.39393 199.887 5.42435C198.646 6.49076 196.773 6.88819 195.714 5.65523C194.362 4.08275 193.932 1.69663 195.515 0.336561Z" fill="#0E2C2E" fill-opacity="0.9" shape-rendering="crispEdges"/>
</g>
<g filter="url(#filter13_d_501_5308)">
<path fill-rule="evenodd" clip-rule="evenodd" d="M241.515 31.3366C243.064 30.0045 245.282 30.9108 246.606 32.4509C247.63 33.6423 247.086 35.3939 245.887 36.4243C244.646 37.4908 242.773 37.8882 241.714 36.6552C240.362 35.0827 239.932 32.6966 241.515 31.3366Z" fill="#0E2C2E"/>
</g>
<g filter="url(#filter14_d_501_5308)">
<path fill-rule="evenodd" clip-rule="evenodd" d="M6.99606 23.2252C9.16637 23.0784 10.4785 25.265 10.6244 27.4215C10.7373 29.0897 9.15691 30.2358 7.47803 30.3494C5.7405 30.4669 3.89102 29.6114 3.77422 27.8849C3.62526 25.683 4.78008 23.3751 6.99606 23.2252Z" fill="#0E2C2E"/>
</g>
<g filter="url(#filter15_d_501_5308)">
<path fill-rule="evenodd" clip-rule="evenodd" d="M39.9961 -8.77482C42.1664 -8.92165 43.4785 -6.73501 43.6244 -4.57852C43.7373 -2.91033 42.1569 -1.76422 40.478 -1.65064C38.7405 -1.53309 36.891 -2.38864 36.7742 -4.11509C36.6253 -6.31696 37.7801 -8.62491 39.9961 -8.77482Z" fill="#8A441E"/>
<path fill-rule="evenodd" clip-rule="evenodd" d="M39.9961 -8.77482C42.1664 -8.92165 43.4785 -6.73501 43.6244 -4.57852C43.7373 -2.91033 42.1569 -1.76422 40.478 -1.65064C38.7405 -1.53309 36.891 -2.38864 36.7742 -4.11509C36.6253 -6.31696 37.7801 -8.62491 39.9961 -8.77482Z" stroke="black" stroke-width="0.5"/>
</g>
<g filter="url(#filter16_d_501_5308)">
<path fill-rule="evenodd" clip-rule="evenodd" d="M87.9961 25.2252C90.1664 25.0784 91.4785 27.265 91.6244 29.4215C91.7373 31.0897 90.1569 32.2358 88.478 32.3494C86.7405 32.4669 84.891 31.6114 84.7742 29.8849C84.6253 27.683 85.7801 25.3751 87.9961 25.2252Z" fill="#0E2C2E" fill-opacity="0.8" shape-rendering="crispEdges"/>
</g>
<g filter="url(#filter17_d_501_5308)">
<path fill-rule="evenodd" clip-rule="evenodd" d="M125.996 -5.77482C128.166 -5.92165 129.479 -3.73501 129.624 -1.57852C129.737 0.0896722 128.157 1.23578 126.478 1.34936C124.741 1.46691 122.891 0.611363 122.774 -1.11509C122.625 -3.31696 123.78 -5.62491 125.996 -5.77482Z" fill="#0E2C2E" fill-opacity="0.7" shape-rendering="crispEdges"/>
</g>
<g filter="url(#filter18_d_501_5308)">
<path fill-rule="evenodd" clip-rule="evenodd" d="M165.996 26.2252C168.166 26.0784 169.479 28.265 169.624 30.4215C169.737 32.0897 168.157 33.2358 166.478 33.3494C164.741 33.4669 162.891 32.6114 162.774 30.8849C162.625 28.683 163.78 26.3751 165.996 26.2252Z" fill="#0E2C2E" fill-opacity="0.8" shape-rendering="crispEdges"/>
</g>
<g filter="url(#filter19_d_501_5308)">
<path fill-rule="evenodd" clip-rule="evenodd" d="M205.996 -5.77482C208.166 -5.92165 209.479 -3.73501 209.624 -1.57852C209.737 0.0896722 208.157 1.23578 206.478 1.34936C204.741 1.46691 202.891 0.611363 202.774 -1.11509C202.625 -3.31696 203.78 -5.62491 205.996 -5.77482Z" fill="#0E2C2E" fill-opacity="0.9" shape-rendering="crispEdges"/>
</g>
<g filter="url(#filter20_d_501_5308)">
<path fill-rule="evenodd" clip-rule="evenodd" d="M251.996 25.2252C254.166 25.0784 255.479 27.265 255.624 29.4215C255.737 31.0897 254.157 32.2358 252.478 32.3494C250.741 32.4669 248.891 31.6114 248.774 29.8849C248.625 27.683 249.78 25.3751 251.996 25.2252Z" fill="#0E2C2E"/>
</g>
<g filter="url(#filter21_d_501_5308)">
<path fill-rule="evenodd" clip-rule="evenodd" d="M17.9725 27.728C20.2788 28.6955 20.5006 31.6191 19.5393 33.9107C18.7957 35.6835 16.5808 36.0471 14.7967 35.2987C12.9503 34.5241 11.4902 32.6918 12.2598 30.8571C13.2414 28.5172 15.6176 26.7402 17.9725 27.728Z" fill="#0E2C2E"/>
</g>
<g filter="url(#filter22_d_501_5308)">
<path fill-rule="evenodd" clip-rule="evenodd" d="M50.9725 -4.27201C53.2788 -3.30454 53.5006 -0.380934 52.5393 1.91071C51.7957 3.68345 49.5808 4.04708 47.7967 3.29868C45.9503 2.52414 44.4902 0.691753 45.2598 -1.14291C46.2414 -3.48277 48.6176 -5.25983 50.9725 -4.27201Z" fill="#0E2C2E" fill-opacity="0.9" shape-rendering="crispEdges"/>
</g>
<g filter="url(#filter23_d_501_5308)">
<path fill-rule="evenodd" clip-rule="evenodd" d="M98.9726 29.728C101.279 30.6955 101.501 33.6191 100.539 35.9107C99.7958 37.6835 97.5809 38.0471 95.7968 37.2987C93.9504 36.5241 92.4904 34.6918 93.26 32.8571C94.2415 30.5172 96.6177 28.7402 98.9726 29.728Z" fill="#0E2C2E" fill-opacity="0.7" shape-rendering="crispEdges"/>
</g>
<g filter="url(#filter24_d_501_5308)">
<path fill-rule="evenodd" clip-rule="evenodd" d="M136.973 -1.27201C139.279 -0.304542 139.501 2.61907 138.539 4.91071C137.796 6.68345 135.581 7.04708 133.797 6.29868C131.95 5.52414 130.49 3.69175 131.26 1.85709C132.241 -0.482772 134.618 -2.25983 136.973 -1.27201Z" fill="#0E2C2E" fill-opacity="0.7" shape-rendering="crispEdges"/>
</g>
<g filter="url(#filter25_d_501_5308)">
<path fill-rule="evenodd" clip-rule="evenodd" d="M176.973 30.728C179.279 31.6955 179.501 34.6191 178.539 36.9107C177.796 38.6835 175.581 39.0471 173.797 38.2987C171.95 37.5241 170.49 35.6918 171.26 33.8571C172.241 31.5172 174.618 29.7402 176.973 30.728Z" fill="#0E2C2E" fill-opacity="0.8" shape-rendering="crispEdges"/>
</g>
<g filter="url(#filter26_d_501_5308)">
<path fill-rule="evenodd" clip-rule="evenodd" d="M216.973 -1.27201C219.279 -0.304542 219.501 2.61907 218.539 4.91071C217.796 6.68345 215.581 7.04708 213.797 6.29868C211.95 5.52414 210.49 3.69175 211.26 1.85709C212.241 -0.482772 214.618 -2.25983 216.973 -1.27201Z" fill="#0E2C2E" fill-opacity="0.9" shape-rendering="crispEdges"/>
</g>
<g filter="url(#filter27_d_501_5308)">
<path fill-rule="evenodd" clip-rule="evenodd" d="M262.973 29.728C265.279 30.6955 265.501 33.6191 264.539 35.9107C263.796 37.6835 261.581 38.0471 259.797 37.2987C257.95 36.5241 256.49 34.6918 257.26 32.8571C258.241 30.5172 260.618 28.7402 262.973 29.728Z" fill="#0E2C2E"/>
</g>
<g filter="url(#filter28_d_501_5308)">
<path fill-rule="evenodd" clip-rule="evenodd" d="M6.97811 52.5845C4.55916 51.8706 2.29894 50.3581 1.45362 47.9867C0.720987 45.9314 2.76429 44.1564 3.21309 42.0223C3.94507 38.5418 1.63574 33.6164 4.81406 32.0078C7.92789 30.4318 10.7449 34.709 13.546 36.7927C16.1825 38.754 19.7177 40.1741 20.161 43.4244C20.6278 46.846 18.4829 50.2019 15.6441 52.1744C13.1481 53.9087 9.89645 53.4457 6.97811 52.5845Z" fill="#0E2C2E"/>
</g>
<g filter="url(#filter29_d_501_5308)">
<path fill-rule="evenodd" clip-rule="evenodd" d="M39.9781 20.5845C37.5592 19.8706 35.2989 18.3581 34.4536 15.9867C33.721 13.9314 35.7643 12.1564 36.2131 10.0223C36.9451 6.54176 34.6357 1.61635 37.8141 0.0077703C40.9279 -1.56817 43.7449 2.70905 46.546 4.79275C49.1825 6.75402 52.7177 8.17406 53.161 11.4244C53.6278 14.846 51.4829 18.2019 48.6441 20.1744C46.1481 21.9087 42.8964 21.4457 39.9781 20.5845Z" fill="#0E2C2E" fill-opacity="0.9" shape-rendering="crispEdges"/>
</g>
<g filter="url(#filter30_d_501_5308)">
<path fill-rule="evenodd" clip-rule="evenodd" d="M87.9782 54.5845C85.5593 53.8706 83.2991 52.3581 82.4537 49.9867C81.7211 47.9314 83.7644 46.1564 84.2132 44.0223C84.9452 40.5418 82.6359 35.6164 85.8142 34.0078C88.928 32.4318 91.7451 36.709 94.5461 38.7927C97.1826 40.754 100.718 42.1741 101.161 45.4244C101.628 48.846 99.483 52.2019 96.6442 54.1744C94.1483 55.9087 90.8966 55.4457 87.9782 54.5845Z" fill="#0E2C2E" fill-opacity="0.8" shape-rendering="crispEdges"/>
</g>
<g filter="url(#filter31_d_501_5308)">
<path fill-rule="evenodd" clip-rule="evenodd" d="M125.978 23.5845C123.559 22.8706 121.299 21.3581 120.454 18.9867C119.721 16.9314 121.764 15.1564 122.213 13.0223C122.945 9.54176 120.636 4.61635 123.814 3.00777C126.928 1.43183 129.745 5.70905 132.546 7.79275C135.183 9.75402 138.718 11.1741 139.161 14.4244C139.628 17.846 137.483 21.2019 134.644 23.1744C132.148 24.9087 128.897 24.4457 125.978 23.5845Z" fill="#0E2C2E" fill-opacity="0.7" shape-rendering="crispEdges"/>
</g>
<g filter="url(#filter32_d_501_5308)">
<path fill-rule="evenodd" clip-rule="evenodd" d="M165.978 55.5845C163.559 54.8706 161.299 53.3581 160.454 50.9867C159.721 48.9314 161.764 47.1564 162.213 45.0223C162.945 41.5418 160.636 36.6164 163.814 35.0078C166.928 33.4318 169.745 37.709 172.546 39.7927C175.183 41.754 178.718 43.1741 179.161 46.4244C179.628 49.846 177.483 53.2019 174.644 55.1744C172.148 56.9087 168.897 56.4457 165.978 55.5845Z" fill="#0E2C2E" fill-opacity="0.8" shape-rendering="crispEdges"/>
</g>
<g filter="url(#filter33_d_501_5308)">
<path fill-rule="evenodd" clip-rule="evenodd" d="M205.978 23.5845C203.559 22.8706 201.299 21.3581 200.454 18.9867C199.721 16.9314 201.764 15.1564 202.213 13.0223C202.945 9.54176 200.636 4.61635 203.814 3.00777C206.928 1.43183 209.745 5.70905 212.546 7.79275C215.183 9.75402 218.718 11.1741 219.161 14.4244C219.628 17.846 217.483 21.2019 214.644 23.1744C212.148 24.9087 208.897 24.4457 205.978 23.5845Z" fill="#0E2C2E" fill-opacity="0.9" shape-rendering="crispEdges"/>
</g>
<g filter="url(#filter34_d_501_5308)">
<path fill-rule="evenodd" clip-rule="evenodd" d="M251.978 54.5845C249.559 53.8706 247.299 52.3581 246.454 49.9867C245.721 47.9314 247.764 46.1564 248.213 44.0223C248.945 40.5418 246.636 35.6164 249.814 34.0078C252.928 32.4318 255.745 36.709 258.546 38.7927C261.183 40.754 264.718 42.1741 265.161 45.4244C265.628 48.846 263.483 52.2019 260.644 54.1744C258.148 55.9087 254.897 55.4457 251.978 54.5845Z" fill="#0E2C2E"/>
</g>
</g>
<defs>
<filter id="filter0_d_501_5308" x="-8.0874" y="38.2216" width="8.64404" height="7.7085" filterUnits="userSpaceOnUse" color-interpolation-filters="sRGB">
<feFlood flood-opacity="0" result="BackgroundImageFix"/>
<feColorMatrix in="SourceAlpha" type="matrix" values="0 0 0 0 0 0 0 0 0 0 0 0 0 0 0 0 0 0 127 0" result="hardAlpha"/>
<feOffset dx="-3" dy="2"/>
<feComposite in2="hardAlpha" operator="out"/>
<feColorMatrix type="matrix" values="0 0 0 0 0 0 0 0 0 0 0 0 0 0 0 0 0 0 0.25 0"/>
<feBlend mode="normal" in2="BackgroundImageFix" result="effect1_dropShadow_501_5308"/>
<feBlend mode="normal" in="SourceGraphic" in2="effect1_dropShadow_501_5308" result="shape"/>
</filter>
<filter id="filter1_d_501_5308" x="25.1626" y="6.47144" width="8.14417" height="7.20874" filterUnits="userSpaceOnUse" color-interpolation-filters="sRGB">
<feFlood flood-opacity="0" result="BackgroundImageFix"/>
<feColorMatrix in="SourceAlpha" type="matrix" values="0 0 0 0 0 0 0 0 0 0 0 0 0 0 0 0 0 0 127 0" result="hardAlpha"/>
<feOffset dx="-3" dy="2"/>
<feComposite in2="hardAlpha" operator="out"/>
<feColorMatrix type="matrix" values="0 0 0 0 0 0 0 0 0 0 0 0 0 0 0 0 0 0 0.25 0"/>
<feBlend mode="normal" in2="BackgroundImageFix" result="effect1_dropShadow_501_5308"/>
<feBlend mode="normal" in="SourceGraphic" in2="effect1_dropShadow_501_5308" result="shape"/>
</filter>
<filter id="filter2_d_501_5308" x="73.1626" y="40.4714" width="8.14429" height="7.20874" filterUnits="userSpaceOnUse" color-interpolation-filters="sRGB">
<feFlood flood-opacity="0" result="BackgroundImageFix"/>
<feColorMatrix in="SourceAlpha" type="matrix" values="0 0 0 0 0 0 0 0 0 0 0 0 0 0 0 0 0 0 127 0" result="hardAlpha"/>
<feOffset dx="-3" dy="2"/>
<feComposite in2="hardAlpha" operator="out"/>
<feColorMatrix type="matrix" values="0 0 0 0 0 0 0 0 0 0 0 0 0 0 0 0 0 0 0.25 0"/>
<feBlend mode="normal" in2="BackgroundImageFix" result="effect1_dropShadow_501_5308"/>
<feBlend mode="normal" in="SourceGraphic" in2="effect1_dropShadow_501_5308" result="shape"/>
</filter>
<filter id="filter3_d_501_5308" x="111.163" y="9.47144" width="8.14429" height="7.20874" filterUnits="userSpaceOnUse" color-interpolation-filters="sRGB">
<feFlood flood-opacity="0" result="BackgroundImageFix"/>
<feColorMatrix in="SourceAlpha" type="matrix" values="0 0 0 0 0 0 0 0 0 0 0 0 0 0 0 0 0 0 127 0" result="hardAlpha"/>
<feOffset dx="-3" dy="2"/>
<feComposite in2="hardAlpha" operator="out"/>
<feColorMatrix type="matrix" values="0 0 0 0 0 0 0 0 0 0 0 0 0 0 0 0 0 0 0.25 0"/>
<feBlend mode="normal" in2="BackgroundImageFix" result="effect1_dropShadow_501_5308"/>
<feBlend mode="normal" in="SourceGraphic" in2="effect1_dropShadow_501_5308" result="shape"/>
</filter>
<filter id="filter4_d_501_5308" x="151.163" y="41.4714" width="8.14429" height="7.20874" filterUnits="userSpaceOnUse" color-interpolation-filters="sRGB">
<feFlood flood-opacity="0" result="BackgroundImageFix"/>
<feColorMatrix in="SourceAlpha" type="matrix" values="0 0 0 0 0 0 0 0 0 0 0 0 0 0 0 0 0 0 127 0" result="hardAlpha"/>
<feOffset dx="-3" dy="2"/>
<feComposite in2="hardAlpha" operator="out"/>
<feColorMatrix type="matrix" values="0 0 0 0 0 0 0 0 0 0 0 0 0 0 0 0 0 0 0.25 0"/>
<feBlend mode="normal" in2="BackgroundImageFix" result="effect1_dropShadow_501_5308"/>
<feBlend mode="normal" in="SourceGraphic" in2="effect1_dropShadow_501_5308" result="shape"/>
</filter>
<filter id="filter5_d_501_5308" x="191.163" y="9.47144" width="8.14429" height="7.20874" filterUnits="userSpaceOnUse" color-interpolation-filters="sRGB">
<feFlood flood-opacity="0" result="BackgroundImageFix"/>
<feColorMatrix in="SourceAlpha" type="matrix" values="0 0 0 0 0 0 0 0 0 0 0 0 0 0 0 0 0 0 127 0" result="hardAlpha"/>
<feOffset dx="-3" dy="2"/>
<feComposite in2="hardAlpha" operator="out"/>
<feColorMatrix type="matrix" values="0 0 0 0 0 0 0 0 0 0 0 0 0 0 0 0 0 0 0.25 0"/>
<feBlend mode="normal" in2="BackgroundImageFix" result="effect1_dropShadow_501_5308"/>
<feBlend mode="normal" in="SourceGraphic" in2="effect1_dropShadow_501_5308" result="shape"/>
</filter>
<filter id="filter6_d_501_5308" x="237.163" y="40.4714" width="8.14429" height="7.20874" filterUnits="userSpaceOnUse" color-interpolation-filters="sRGB">
<feFlood flood-opacity="0" result="BackgroundImageFix"/>
<feColorMatrix in="SourceAlpha" type="matrix" values="0 0 0 0 0 0 0 0 0 0 0 0 0 0 0 0 0 0 127 0" result="hardAlpha"/>
<feOffset dx="-3" dy="2"/>
<feComposite in2="hardAlpha" operator="out"/>
<feColorMatrix type="matrix" values="0 0 0 0 0 0 0 0 0 0 0 0 0 0 0 0 0 0 0.25 0"/>
<feBlend mode="normal" in2="BackgroundImageFix" result="effect1_dropShadow_501_5308"/>
<feBlend mode="normal" in="SourceGraphic" in2="effect1_dropShadow_501_5308" result="shape"/>
</filter>
<filter id="filter7_d_501_5308" x="-7.49866" y="28.691" width="9.64343" height="8.72681" filterUnits="userSpaceOnUse" color-interpolation-filters="sRGB">
<feFlood flood-opacity="0" result="BackgroundImageFix"/>
<feColorMatrix in="SourceAlpha" type="matrix" values="0 0 0 0 0 0 0 0 0 0 0 0 0 0 0 0 0 0 127 0" result="hardAlpha"/>
<feOffset dx="-3" dy="2"/>
<feComposite in2="hardAlpha" operator="out"/>
<feColorMatrix type="matrix" values="0 0 0 0 0 0 0 0 0 0 0 0 0 0 0 0 0 0 0.25 0"/>
<feBlend mode="normal" in2="BackgroundImageFix" result="effect1_dropShadow_501_5308"/>
<feBlend mode="normal" in="SourceGraphic" in2="effect1_dropShadow_501_5308" result="shape"/>
</filter>
<filter id="filter8_d_501_5308" x="25.5013" y="-3.30896" width="9.64343" height="8.72681" filterUnits="userSpaceOnUse" color-interpolation-filters="sRGB">
<feFlood flood-opacity="0" result="BackgroundImageFix"/>
<feColorMatrix in="SourceAlpha" type="matrix" values="0 0 0 0 0 0 0 0 0 0 0 0 0 0 0 0 0 0 127 0" result="hardAlpha"/>
<feOffset dx="-3" dy="2"/>
<feComposite in2="hardAlpha" operator="out"/>
<feColorMatrix type="matrix" values="0 0 0 0 0 0 0 0 0 0 0 0 0 0 0 0 0 0 0.25 0"/>
<feBlend mode="normal" in2="BackgroundImageFix" result="effect1_dropShadow_501_5308"/>
<feBlend mode="normal" in="SourceGraphic" in2="effect1_dropShadow_501_5308" result="shape"/>
</filter>
<filter id="filter9_d_501_5308" x="73.5015" y="30.691" width="9.64331" height="8.72681" filterUnits="userSpaceOnUse" color-interpolation-filters="sRGB">
<feFlood flood-opacity="0" result="BackgroundImageFix"/>
<feColorMatrix in="SourceAlpha" type="matrix" values="0 0 0 0 0 0 0 0 0 0 0 0 0 0 0 0 0 0 127 0" result="hardAlpha"/>
<feOffset dx="-3" dy="2"/>
<feComposite in2="hardAlpha" operator="out"/>
<feColorMatrix type="matrix" values="0 0 0 0 0 0 0 0 0 0 0 0 0 0 0 0 0 0 0.25 0"/>
<feBlend mode="normal" in2="BackgroundImageFix" result="effect1_dropShadow_501_5308"/>
<feBlend mode="normal" in="SourceGraphic" in2="effect1_dropShadow_501_5308" result="shape"/>
</filter>
<filter id="filter10_d_501_5308" x="111.501" y="-0.30896" width="9.64331" height="8.72681" filterUnits="userSpaceOnUse" color-interpolation-filters="sRGB">
<feFlood flood-opacity="0" result="BackgroundImageFix"/>
<feColorMatrix in="SourceAlpha" type="matrix" values="0 0 0 0 0 0 0 0 0 0 0 0 0 0 0 0 0 0 127 0" result="hardAlpha"/>
<feOffset dx="-3" dy="2"/>
<feComposite in2="hardAlpha" operator="out"/>
<feColorMatrix type="matrix" values="0 0 0 0 0 0 0 0 0 0 0 0 0 0 0 0 0 0 0.25 0"/>
<feBlend mode="normal" in2="BackgroundImageFix" result="effect1_dropShadow_501_5308"/>
<feBlend mode="normal" in="SourceGraphic" in2="effect1_dropShadow_501_5308" result="shape"/>
</filter>
<filter id="filter11_d_501_5308" x="151.501" y="31.691" width="9.64331" height="8.72681" filterUnits="userSpaceOnUse" color-interpolation-filters="sRGB">
<feFlood flood-opacity="0" result="BackgroundImageFix"/>
<feColorMatrix in="SourceAlpha" type="matrix" values="0 0 0 0 0 0 0 0 0 0 0 0 0 0 0 0 0 0 127 0" result="hardAlpha"/>
<feOffset dx="-3" dy="2"/>
<feComposite in2="hardAlpha" operator="out"/>
<feColorMatrix type="matrix" values="0 0 0 0 0 0 0 0 0 0 0 0 0 0 0 0 0 0 0.25 0"/>
<feBlend mode="normal" in2="BackgroundImageFix" result="effect1_dropShadow_501_5308"/>
<feBlend mode="normal" in="SourceGraphic" in2="effect1_dropShadow_501_5308" result="shape"/>
</filter>
<filter id="filter12_d_501_5308" x="191.501" y="-0.30896" width="9.64331" height="8.72681" filterUnits="userSpaceOnUse" color-interpolation-filters="sRGB">
<feFlood flood-opacity="0" result="BackgroundImageFix"/>
<feColorMatrix in="SourceAlpha" type="matrix" values="0 0 0 0 0 0 0 0 0 0 0 0 0 0 0 0 0 0 127 0" result="hardAlpha"/>
<feOffset dx="-3" dy="2"/>
<feComposite in2="hardAlpha" operator="out"/>
<feColorMatrix type="matrix" values="0 0 0 0 0 0 0 0 0 0 0 0 0 0 0 0 0 0 0.25 0"/>
<feBlend mode="normal" in2="BackgroundImageFix" result="effect1_dropShadow_501_5308"/>
<feBlend mode="normal" in="SourceGraphic" in2="effect1_dropShadow_501_5308" result="shape"/>
</filter>
<filter id="filter13_d_501_5308" x="237.501" y="30.691" width="9.64331" height="8.72681" filterUnits="userSpaceOnUse" color-interpolation-filters="sRGB">
<feFlood flood-opacity="0" result="BackgroundImageFix"/>
<feColorMatrix in="SourceAlpha" type="matrix" values="0 0 0 0 0 0 0 0 0 0 0 0 0 0 0 0 0 0 127 0" result="hardAlpha"/>
<feOffset dx="-3" dy="2"/>
<feComposite in2="hardAlpha" operator="out"/>
<feColorMatrix type="matrix" values="0 0 0 0 0 0 0 0 0 0 0 0 0 0 0 0 0 0 0.25 0"/>
<feBlend mode="normal" in2="BackgroundImageFix" result="effect1_dropShadow_501_5308"/>
<feBlend mode="normal" in="SourceGraphic" in2="effect1_dropShadow_501_5308" result="shape"/>
</filter>
<filter id="filter14_d_501_5308" x="0.761353" y="23.2181" width="9.86877" height="9.14185" filterUnits="userSpaceOnUse" color-interpolation-filters="sRGB">
<feFlood flood-opacity="0" result="BackgroundImageFix"/>
<feColorMatrix in="SourceAlpha" type="matrix" values="0 0 0 0 0 0 0 0 0 0 0 0 0 0 0 0 0 0 127 0" result="hardAlpha"/>
<feOffset dx="-3" dy="2"/>
<feComposite in2="hardAlpha" operator="out"/>
<feColorMatrix type="matrix" values="0 0 0 0 0 0 0 0 0 0 0 0 0 0 0 0 0 0 0.25 0"/>
<feBlend mode="normal" in2="BackgroundImageFix" result="effect1_dropShadow_501_5308"/>
<feBlend mode="normal" in="SourceGraphic" in2="effect1_dropShadow_501_5308" result="shape"/>
</filter>
<filter id="filter15_d_501_5308" x="33.5115" y="-9.03186" width="10.3687" height="9.64185" filterUnits="userSpaceOnUse" color-interpolation-filters="sRGB">
<feFlood flood-opacity="0" result="BackgroundImageFix"/>
<feColorMatrix in="SourceAlpha" type="matrix" values="0 0 0 0 0 0 0 0 0 0 0 0 0 0 0 0 0 0 127 0" result="hardAlpha"/>
<feOffset dx="-3" dy="2"/>
<feComposite in2="hardAlpha" operator="out"/>
<feColorMatrix type="matrix" values="0 0 0 0 0 0 0 0 0 0 0 0 0 0 0 0 0 0 0.25 0"/>
<feBlend mode="normal" in2="BackgroundImageFix" result="effect1_dropShadow_501_5308"/>
<feBlend mode="normal" in="SourceGraphic" in2="effect1_dropShadow_501_5308" result="shape"/>
</filter>
<filter id="filter16_d_501_5308" x="81.7615" y="25.2181" width="9.86865" height="9.14185" filterUnits="userSpaceOnUse" color-interpolation-filters="sRGB">
<feFlood flood-opacity="0" result="BackgroundImageFix"/>
<feColorMatrix in="SourceAlpha" type="matrix" values="0 0 0 0 0 0 0 0 0 0 0 0 0 0 0 0 0 0 127 0" result="hardAlpha"/>
<feOffset dx="-3" dy="2"/>
<feComposite in2="hardAlpha" operator="out"/>
<feColorMatrix type="matrix" values="0 0 0 0 0 0 0 0 0 0 0 0 0 0 0 0 0 0 0.25 0"/>
<feBlend mode="normal" in2="BackgroundImageFix" result="effect1_dropShadow_501_5308"/>
<feBlend mode="normal" in="SourceGraphic" in2="effect1_dropShadow_501_5308" result="shape"/>
</filter>
<filter id="filter17_d_501_5308" x="119.761" y="-5.78186" width="9.86865" height="9.14185" filterUnits="userSpaceOnUse" color-interpolation-filters="sRGB">
<feFlood flood-opacity="0" result="BackgroundImageFix"/>
<feColorMatrix in="SourceAlpha" type="matrix" values="0 0 0 0 0 0 0 0 0 0 0 0 0 0 0 0 0 0 127 0" result="hardAlpha"/>
<feOffset dx="-3" dy="2"/>
<feComposite in2="hardAlpha" operator="out"/>
<feColorMatrix type="matrix" values="0 0 0 0 0 0 0 0 0 0 0 0 0 0 0 0 0 0 0.25 0"/>
<feBlend mode="normal" in2="BackgroundImageFix" result="effect1_dropShadow_501_5308"/>
<feBlend mode="normal" in="SourceGraphic" in2="effect1_dropShadow_501_5308" result="shape"/>
</filter>
<filter id="filter18_d_501_5308" x="159.761" y="26.2181" width="9.86865" height="9.14185" filterUnits="userSpaceOnUse" color-interpolation-filters="sRGB">
<feFlood flood-opacity="0" result="BackgroundImageFix"/>
<feColorMatrix in="SourceAlpha" type="matrix" values="0 0 0 0 0 0 0 0 0 0 0 0 0 0 0 0 0 0 127 0" result="hardAlpha"/>
<feOffset dx="-3" dy="2"/>
<feComposite in2="hardAlpha" operator="out"/>
<feColorMatrix type="matrix" values="0 0 0 0 0 0 0 0 0 0 0 0 0 0 0 0 0 0 0.25 0"/>
<feBlend mode="normal" in2="BackgroundImageFix" result="effect1_dropShadow_501_5308"/>
<feBlend mode="normal" in="SourceGraphic" in2="effect1_dropShadow_501_5308" result="shape"/>
</filter>
<filter id="filter19_d_501_5308" x="199.761" y="-5.78186" width="9.86865" height="9.14185" filterUnits="userSpaceOnUse" color-interpolation-filters="sRGB">
<feFlood flood-opacity="0" result="BackgroundImageFix"/>
<feColorMatrix in="SourceAlpha" type="matrix" values="0 0 0 0 0 0 0 0 0 0 0 0 0 0 0 0 0 0 127 0" result="hardAlpha"/>
<feOffset dx="-3" dy="2"/>
<feComposite in2="hardAlpha" operator="out"/>
<feColorMatrix type="matrix" values="0 0 0 0 0 0 0 0 0 0 0 0 0 0 0 0 0 0 0.25 0"/>
<feBlend mode="normal" in2="BackgroundImageFix" result="effect1_dropShadow_501_5308"/>
<feBlend mode="normal" in="SourceGraphic" in2="effect1_dropShadow_501_5308" result="shape"/>
</filter>
<filter id="filter20_d_501_5308" x="245.761" y="25.2181" width="9.86865" height="9.14185" filterUnits="userSpaceOnUse" color-interpolation-filters="sRGB">
<feFlood flood-opacity="0" result="BackgroundImageFix"/>
<feColorMatrix in="SourceAlpha" type="matrix" values="0 0 0 0 0 0 0 0 0 0 0 0 0 0 0 0 0 0 127 0" result="hardAlpha"/>
<feOffset dx="-3" dy="2"/>
<feComposite in2="hardAlpha" operator="out"/>
<feColorMatrix type="matrix" values="0 0 0 0 0 0 0 0 0 0 0 0 0 0 0 0 0 0 0.25 0"/>
<feBlend mode="normal" in2="BackgroundImageFix" result="effect1_dropShadow_501_5308"/>
<feBlend mode="normal" in="SourceGraphic" in2="effect1_dropShadow_501_5308" result="shape"/>
</filter>
<filter id="filter21_d_501_5308" x="9.04993" y="27.4492" width="11.0256" height="10.2166" filterUnits="userSpaceOnUse" color-interpolation-filters="sRGB">
<feFlood flood-opacity="0" result="BackgroundImageFix"/>
<feColorMatrix in="SourceAlpha" type="matrix" values="0 0 0 0 0 0 0 0 0 0 0 0 0 0 0 0 0 0 127 0" result="hardAlpha"/>
<feOffset dx="-3" dy="2"/>
<feComposite in2="hardAlpha" operator="out"/>
<feColorMatrix type="matrix" values="0 0 0 0 0 0 0 0 0 0 0 0 0 0 0 0 0 0 0.25 0"/>
<feBlend mode="normal" in2="BackgroundImageFix" result="effect1_dropShadow_501_5308"/>
<feBlend mode="normal" in="SourceGraphic" in2="effect1_dropShadow_501_5308" result="shape"/>
</filter>
<filter id="filter22_d_501_5308" x="42.0499" y="-4.55078" width="11.0256" height="10.2166" filterUnits="userSpaceOnUse" color-interpolation-filters="sRGB">
<feFlood flood-opacity="0" result="BackgroundImageFix"/>
<feColorMatrix in="SourceAlpha" type="matrix" values="0 0 0 0 0 0 0 0 0 0 0 0 0 0 0 0 0 0 127 0" result="hardAlpha"/>
<feOffset dx="-3" dy="2"/>
<feComposite in2="hardAlpha" operator="out"/>
<feColorMatrix type="matrix" values="0 0 0 0 0 0 0 0 0 0 0 0 0 0 0 0 0 0 0.25 0"/>
<feBlend mode="normal" in2="BackgroundImageFix" result="effect1_dropShadow_501_5308"/>
<feBlend mode="normal" in="SourceGraphic" in2="effect1_dropShadow_501_5308" result="shape"/>
</filter>
<filter id="filter23_d_501_5308" x="90.05" y="29.4492" width="11.0256" height="10.2166" filterUnits="userSpaceOnUse" color-interpolation-filters="sRGB">
<feFlood flood-opacity="0" result="BackgroundImageFix"/>
<feColorMatrix in="SourceAlpha" type="matrix" values="0 0 0 0 0 0 0 0 0 0 0 0 0 0 0 0 0 0 127 0" result="hardAlpha"/>
<feOffset dx="-3" dy="2"/>
<feComposite in2="hardAlpha" operator="out"/>
<feColorMatrix type="matrix" values="0 0 0 0 0 0 0 0 0 0 0 0 0 0 0 0 0 0 0.25 0"/>
<feBlend mode="normal" in2="BackgroundImageFix" result="effect1_dropShadow_501_5308"/>
<feBlend mode="normal" in="SourceGraphic" in2="effect1_dropShadow_501_5308" result="shape"/>
</filter>
<filter id="filter24_d_501_5308" x="128.05" y="-1.55078" width="11.0256" height="10.2166" filterUnits="userSpaceOnUse" color-interpolation-filters="sRGB">
<feFlood flood-opacity="0" result="BackgroundImageFix"/>
<feColorMatrix in="SourceAlpha" type="matrix" values="0 0 0 0 0 0 0 0 0 0 0 0 0 0 0 0 0 0 127 0" result="hardAlpha"/>
<feOffset dx="-3" dy="2"/>
<feComposite in2="hardAlpha" operator="out"/>
<feColorMatrix type="matrix" values="0 0 0 0 0 0 0 0 0 0 0 0 0 0 0 0 0 0 0.25 0"/>
<feBlend mode="normal" in2="BackgroundImageFix" result="effect1_dropShadow_501_5308"/>
<feBlend mode="normal" in="SourceGraphic" in2="effect1_dropShadow_501_5308" result="shape"/>
</filter>
<filter id="filter25_d_501_5308" x="168.05" y="30.4492" width="11.0256" height="10.2166" filterUnits="userSpaceOnUse" color-interpolation-filters="sRGB">
<feFlood flood-opacity="0" result="BackgroundImageFix"/>
<feColorMatrix in="SourceAlpha" type="matrix" values="0 0 0 0 0 0 0 0 0 0 0 0 0 0 0 0 0 0 127 0" result="hardAlpha"/>
<feOffset dx="-3" dy="2"/>
<feComposite in2="hardAlpha" operator="out"/>
<feColorMatrix type="matrix" values="0 0 0 0 0 0 0 0 0 0 0 0 0 0 0 0 0 0 0.25 0"/>
<feBlend mode="normal" in2="BackgroundImageFix" result="effect1_dropShadow_501_5308"/>
<feBlend mode="normal" in="SourceGraphic" in2="effect1_dropShadow_501_5308" result="shape"/>
</filter>
<filter id="filter26_d_501_5308" x="208.05" y="-1.55078" width="11.0256" height="10.2166" filterUnits="userSpaceOnUse" color-interpolation-filters="sRGB">
<feFlood flood-opacity="0" result="BackgroundImageFix"/>
<feColorMatrix in="SourceAlpha" type="matrix" values="0 0 0 0 0 0 0 0 0 0 0 0 0 0 0 0 0 0 127 0" result="hardAlpha"/>
<feOffset dx="-3" dy="2"/>
<feComposite in2="hardAlpha" operator="out"/>
<feColorMatrix type="matrix" values="0 0 0 0 0 0 0 0 0 0 0 0 0 0 0 0 0 0 0.25 0"/>
<feBlend mode="normal" in2="BackgroundImageFix" result="effect1_dropShadow_501_5308"/>
<feBlend mode="normal" in="SourceGraphic" in2="effect1_dropShadow_501_5308" result="shape"/>
</filter>
<filter id="filter27_d_501_5308" x="254.05" y="29.4492" width="11.0256" height="10.2166" filterUnits="userSpaceOnUse" color-interpolation-filters="sRGB">
<feFlood flood-opacity="0" result="BackgroundImageFix"/>
<feColorMatrix in="SourceAlpha" type="matrix" values="0 0 0 0 0 0 0 0 0 0 0 0 0 0 0 0 0 0 127 0" result="hardAlpha"/>
<feOffset dx="-3" dy="2"/>
<feComposite in2="hardAlpha" operator="out"/>
<feColorMatrix type="matrix" values="0 0 0 0 0 0 0 0 0 0 0 0 0 0 0 0 0 0 0.25 0"/>
<feBlend mode="normal" in2="BackgroundImageFix" result="effect1_dropShadow_501_5308"/>
<feBlend mode="normal" in="SourceGraphic" in2="effect1_dropShadow_501_5308" result="shape"/>
</filter>
<filter id="filter28_d_501_5308" x="-1.70349" y="31.6665" width="21.9286" height="23.6863" filterUnits="userSpaceOnUse" color-interpolation-filters="sRGB">
<feFlood flood-opacity="0" result="BackgroundImageFix"/>
<feColorMatrix in="SourceAlpha" type="matrix" values="0 0 0 0 0 0 0 0 0 0 0 0 0 0 0 0 0 0 127 0" result="hardAlpha"/>
<feOffset dx="-3" dy="2"/>
<feComposite in2="hardAlpha" operator="out"/>
<feColorMatrix type="matrix" values="0 0 0 0 0 0 0 0 0 0 0 0 0 0 0 0 0 0 0.25 0"/>
<feBlend mode="normal" in2="BackgroundImageFix" result="effect1_dropShadow_501_5308"/>
<feBlend mode="normal" in="SourceGraphic" in2="effect1_dropShadow_501_5308" result="shape"/>
</filter>
<filter id="filter29_d_501_5308" x="31.2965" y="-0.333496" width="21.9286" height="23.6863" filterUnits="userSpaceOnUse" color-interpolation-filters="sRGB">
<feFlood flood-opacity="0" result="BackgroundImageFix"/>
<feColorMatrix in="SourceAlpha" type="matrix" values="0 0 0 0 0 0 0 0 0 0 0 0 0 0 0 0 0 0 127 0" result="hardAlpha"/>
<feOffset dx="-3" dy="2"/>
<feComposite in2="hardAlpha" operator="out"/>
<feColorMatrix type="matrix" values="0 0 0 0 0 0 0 0 0 0 0 0 0 0 0 0 0 0 0.25 0"/>
<feBlend mode="normal" in2="BackgroundImageFix" result="effect1_dropShadow_501_5308"/>
<feBlend mode="normal" in="SourceGraphic" in2="effect1_dropShadow_501_5308" result="shape"/>
</filter>
<filter id="filter30_d_501_5308" x="79.2966" y="33.6665" width="21.9285" height="23.6863" filterUnits="userSpaceOnUse" color-interpolation-filters="sRGB">
<feFlood flood-opacity="0" result="BackgroundImageFix"/>
<feColorMatrix in="SourceAlpha" type="matrix" values="0 0 0 0 0 0 0 0 0 0 0 0 0 0 0 0 0 0 127 0" result="hardAlpha"/>
<feOffset dx="-3" dy="2"/>
<feComposite in2="hardAlpha" operator="out"/>
<feColorMatrix type="matrix" values="0 0 0 0 0 0 0 0 0 0 0 0 0 0 0 0 0 0 0.25 0"/>
<feBlend mode="normal" in2="BackgroundImageFix" result="effect1_dropShadow_501_5308"/>
<feBlend mode="normal" in="SourceGraphic" in2="effect1_dropShadow_501_5308" result="shape"/>
</filter>
<filter id="filter31_d_501_5308" x="117.297" y="2.6665" width="21.9285" height="23.6863" filterUnits="userSpaceOnUse" color-interpolation-filters="sRGB">
<feFlood flood-opacity="0" result="BackgroundImageFix"/>
<feColorMatrix in="SourceAlpha" type="matrix" values="0 0 0 0 0 0 0 0 0 0 0 0 0 0 0 0 0 0 127 0" result="hardAlpha"/>
<feOffset dx="-3" dy="2"/>
<feComposite in2="hardAlpha" operator="out"/>
<feColorMatrix type="matrix" values="0 0 0 0 0 0 0 0 0 0 0 0 0 0 0 0 0 0 0.25 0"/>
<feBlend mode="normal" in2="BackgroundImageFix" result="effect1_dropShadow_501_5308"/>
<feBlend mode="normal" in="SourceGraphic" in2="effect1_dropShadow_501_5308" result="shape"/>
</filter>
<filter id="filter32_d_501_5308" x="157.297" y="34.6665" width="21.9285" height="23.6863" filterUnits="userSpaceOnUse" color-interpolation-filters="sRGB">
<feFlood flood-opacity="0" result="BackgroundImageFix"/>
<feColorMatrix in="SourceAlpha" type="matrix" values="0 0 0 0 0 0 0 0 0 0 0 0 0 0 0 0 0 0 127 0" result="hardAlpha"/>
<feOffset dx="-3" dy="2"/>
<feComposite in2="hardAlpha" operator="out"/>
<feColorMatrix type="matrix" values="0 0 0 0 0 0 0 0 0 0 0 0 0 0 0 0 0 0 0.25 0"/>
<feBlend mode="normal" in2="BackgroundImageFix" result="effect1_dropShadow_501_5308"/>
<feBlend mode="normal" in="SourceGraphic" in2="effect1_dropShadow_501_5308" result="shape"/>
</filter>
<filter id="filter33_d_501_5308" x="197.297" y="2.6665" width="21.9285" height="23.6863" filterUnits="userSpaceOnUse" color-interpolation-filters="sRGB">
<feFlood flood-opacity="0" result="BackgroundImageFix"/>
<feColorMatrix in="SourceAlpha" type="matrix" values="0 0 0 0 0 0 0 0 0 0 0 0 0 0 0 0 0 0 127 0" result="hardAlpha"/>
<feOffset dx="-3" dy="2"/>
<feComposite in2="hardAlpha" operator="out"/>
<feColorMatrix type="matrix" values="0 0 0 0 0 0 0 0 0 0 0 0 0 0 0 0 0 0 0.25 0"/>
<feBlend mode="normal" in2="BackgroundImageFix" result="effect1_dropShadow_501_5308"/>
<feBlend mode="normal" in="SourceGraphic" in2="effect1_dropShadow_501_5308" result="shape"/>
</filter>
<filter id="filter34_d_501_5308" x="243.297" y="33.6665" width="21.9285" height="23.6863" filterUnits="userSpaceOnUse" color-interpolation-filters="sRGB">
<feFlood flood-opacity="0" result="BackgroundImageFix"/>
<feColorMatrix in="SourceAlpha" type="matrix" values="0 0 0 0 0 0 0 0 0 0 0 0 0 0 0 0 0 0 127 0" result="hardAlpha"/>
<feOffset dx="-3" dy="2"/>
<feComposite in2="hardAlpha" operator="out"/>
<feColorMatrix type="matrix" values="0 0 0 0 0 0 0 0 0 0 0 0 0 0 0 0 0 0 0.25 0"/>
<feBlend mode="normal" in2="BackgroundImageFix" result="effect1_dropShadow_501_5308"/>
<feBlend mode="normal" in="SourceGraphic" in2="effect1_dropShadow_501_5308" result="shape"/>
</filter>
</defs>
</svg>
